<svg id="Capa_1" data-name="Capa 1" xmlns="http://www.w3.org/2000/svg" viewBox="0 0 426.42 331"><defs><style>.cls-1{fill:#fff;}.cls-2{fill:#f58634;}.cls-3{fill:#111d5e;}</style></defs><polygon class="cls-1" points="219.93 227.84 375.89 227.84 411.93 71.88 255.97 71.88 219.93 227.84"/><path class="cls-2" d="M396.18,256.06h-156a9.22,9.22,0,0,1-9-11.3l36-156a9.21,9.21,0,0,1,9-7.15h156a9.22,9.22,0,0,1,9,11.3l-36,156A9.22,9.22,0,0,1,396.18,256.06ZM251.82,237.61h137l31.77-137.5h-137Z" transform="translate(-20.29 -19)"/><path class="cls-2" d="M422.65,142.26H266.52a9.23,9.23,0,1,1,0-18.45H422.65a9.23,9.23,0,1,1,0,18.45Z" transform="translate(-20.29 -19)"/><polygon class="cls-3" points="308.01 236.99 280.7 236.99 322.94 58.19 350.25 58.19 308.01 236.99"/><path class="cls-3" d="M367.39,82.84H335.47a31.92,31.92,0,1,1,31.92-31.92ZM335.47,37.46a13.46,13.46,0,0,0,0,26.92h13.46V50.92A13.47,13.47,0,0,0,335.47,37.46Z" transform="translate(-20.29 -19)"/><path class="cls-3" d="M380.85,82.84H348.93V50.92a31.92,31.92,0,1,1,31.92,31.92ZM367.39,64.38h13.46a13.46,13.46,0,1,0-13.46-13.46Z" transform="translate(-20.29 -19)"/><path class="cls-3" d="M261.24,332.54a17.46,17.46,0,1,1-17.46-17.45A17.46,17.46,0,0,1,261.24,332.54Z" transform="translate(-20.29 -19)"/><path class="cls-3" d="M380.06,332.54a17.46,17.46,0,1,1-17.46-17.45A17.46,17.46,0,0,1,380.06,332.54Z" transform="translate(-20.29 -19)"/><path class="cls-2" d="M179.2,106.81H95.66a9.23,9.23,0,1,1,0-18.46H179.2a9.23,9.23,0,1,1,0,18.46Z" transform="translate(-20.29 -19)"/><path class="cls-2" d="M135,154.32H51.43a9.23,9.23,0,1,1,0-18.45H135a9.23,9.23,0,0,1,0,18.45Z" transform="translate(-20.29 -19)"/><path class="cls-2" d="M156.71,201.56H73.17a9.23,9.23,0,0,1,0-18.46h83.54a9.23,9.23,0,0,1,0,18.46Z" transform="translate(-20.29 -19)"/><path class="cls-2" d="M113.06,249.36H29.52a9.23,9.23,0,1,1,0-18.45h83.54a9.23,9.23,0,1,1,0,18.45Z" transform="translate(-20.29 -19)"/><path class="cls-2" d="M432.87,306.17H181.48a13.84,13.84,0,0,1-13.48-17L222.16,54.79H156.42a13.85,13.85,0,1,1,0-27.69h83.15a13.86,13.86,0,0,1,13.49,17L198.89,278.49h234a13.84,13.84,0,0,1,0,27.68Z" transform="translate(-20.29 -19)"/><line class="cls-2" x1="196.33" y1="58.18" x2="151.82" y2="250.8"/></svg>