<svg id="Capa_1" data-name="Capa 1" xmlns="http://www.w3.org/2000/svg" viewBox="0 0 909 705.6"><defs><style>.cls-1{fill:#fff;}.cls-2{fill:#f58634;}.cls-3{fill:#111d5e;}</style></defs><polygon class="cls-1" points="468.82 485.68 801.29 485.68 878.11 153.22 545.64 153.22 468.82 485.68"/><path class="cls-2" d="M859.29,537.06H526.82A19.67,19.67,0,0,1,507.65,513l76.83-332.47a19.67,19.67,0,0,1,19.17-15.24H936.11a19.66,19.66,0,0,1,19.17,24.1L878.46,521.81A19.68,19.68,0,0,1,859.29,537.06ZM551.56,497.71H843.64l67.73-293.12H619.29Z" transform="translate(-58 -31.7)"/><path class="cls-2" d="M915.72,294.46H582.88a19.67,19.67,0,1,1,0-39.34H915.72a19.67,19.67,0,1,1,0,39.34Z" transform="translate(-58 -31.7)"/><polygon class="cls-3" points="656.6 505.19 598.37 505.19 688.41 124.03 746.64 124.03 656.6 505.19"/><path class="cls-3" d="M797.92,167.78h-68a68,68,0,1,1,68-68Zm-68-96.73a28.7,28.7,0,1,0,0,57.39h28.69V99.74A28.72,28.72,0,0,0,729.88,71.05Z" transform="translate(-58 -31.7)"/><path class="cls-3" d="M826.61,167.78h-68v-68a68,68,0,1,1,68,68Zm-28.69-39.34h28.69a28.7,28.7,0,1,0-28.69-28.7Z" transform="translate(-58 -31.7)"/><path class="cls-3" d="M571.62,700.09a37.21,37.21,0,1,1-37.21-37.21A37.21,37.21,0,0,1,571.62,700.09Z" transform="translate(-58 -31.7)"/><path class="cls-3" d="M824.92,700.09a37.21,37.21,0,1,1-37.21-37.21A37.21,37.21,0,0,1,824.92,700.09Z" transform="translate(-58 -31.7)"/><path class="cls-2" d="M396.74,218.88H218.65a19.68,19.68,0,0,1,0-39.35H396.74a19.68,19.68,0,0,1,0,39.35Z" transform="translate(-58 -31.7)"/><path class="cls-2" d="M302.47,320.17H124.38a19.67,19.67,0,1,1,0-39.34H302.47a19.67,19.67,0,1,1,0,39.34Z" transform="translate(-58 -31.7)"/><path class="cls-2" d="M348.8,420.86H170.71a19.67,19.67,0,1,1,0-39.34H348.8a19.67,19.67,0,0,1,0,39.34Z" transform="translate(-58 -31.7)"/><path class="cls-2" d="M255.76,522.77H77.67a19.68,19.68,0,0,1,0-39.35H255.76a19.68,19.68,0,0,1,0,39.35Z" transform="translate(-58 -31.7)"/><path class="cls-2" d="M937.49,643.87H401.61a29.52,29.52,0,0,1-28.75-36.15L488.33,108H348.18a29.51,29.51,0,1,1,0-59H525.44a29.51,29.51,0,0,1,28.75,36.15L438.72,584.85H937.49a29.51,29.51,0,0,1,0,59Z" transform="translate(-58 -31.7)"/><line class="cls-2" x1="418.51" y1="124.03" x2="323.63" y2="534.65"/></svg>