<svg id="Capa_1" data-name="Capa 1" xmlns="http://www.w3.org/2000/svg" viewBox="0 0 184.22 143"><defs><style>.cls-1{fill:none;}.cls-2{fill:#f58634;}.cls-3{fill:#111d5e;}</style></defs><polygon class="cls-1" points="95.01 98.43 162.39 98.43 177.96 31.05 110.58 31.05 95.01 98.43"/><path class="cls-2" d="M177.78,116.42H110.4a4,4,0,0,1-3.88-4.89l15.57-67.37A4,4,0,0,1,126,41.07h67.38A4,4,0,0,1,197.24,46l-15.57,67.38A4,4,0,0,1,177.78,116.42Zm-62.36-8h59.19L188.34,49h-59.2Z" transform="translate(-15.39 -14)"/><path class="cls-2" d="M189.22,67.25H121.76a4,4,0,0,1,0-8h67.46a4,4,0,1,1,0,8Z" transform="translate(-15.39 -14)"/><polygon class="cls-3" points="133.07 102.38 121.27 102.38 139.52 25.14 151.32 25.14 133.07 102.38"/><path class="cls-3" d="M165.34,41.58H151.55a13.79,13.79,0,1,1,13.79-13.79ZM151.55,22a5.82,5.82,0,0,0,0,11.64h5.82V27.79A5.83,5.83,0,0,0,151.55,22Z" transform="translate(-15.39 -14)"/><path class="cls-3" d="M171.16,41.58H157.37V27.79a13.79,13.79,0,1,1,13.79,13.79Zm-5.82-8h5.82a5.82,5.82,0,1,0-5.82-5.82Z" transform="translate(-15.39 -14)"/><path class="cls-3" d="M119.48,149.46a7.54,7.54,0,1,1-7.54-7.54A7.54,7.54,0,0,1,119.48,149.46Z" transform="translate(-15.39 -14)"/><path class="cls-3" d="M170.82,149.46a7.55,7.55,0,1,1-7.55-7.54A7.55,7.55,0,0,1,170.82,149.46Z" transform="translate(-15.39 -14)"/><path class="cls-2" d="M84,51.93H48a4,4,0,1,1,0-8H84a4,4,0,1,1,0,8Z" transform="translate(-15.39 -14)"/><path class="cls-2" d="M64.94,72.46H28.84a4,4,0,0,1,0-8h36.1a4,4,0,0,1,0,8Z" transform="translate(-15.39 -14)"/><path class="cls-2" d="M74.32,92.87H38.23a4,4,0,1,1,0-8H74.32a4,4,0,1,1,0,8Z" transform="translate(-15.39 -14)"/><path class="cls-2" d="M55.47,113.52H19.38a4,4,0,1,1,0-8H55.47a4,4,0,0,1,0,8Z" transform="translate(-15.39 -14)"/><path class="cls-2" d="M193.63,138.06H85a6,6,0,0,1-5.83-7.32L102.6,29.46H74.2a6,6,0,0,1,0-12h35.92A6,6,0,0,1,116,24.83L92.55,126.1H193.63a6,6,0,0,1,0,12Z" transform="translate(-15.39 -14)"/><line class="cls-2" x1="84.82" y1="25.14" x2="65.59" y2="108.35"/></svg>